<svg width="36" height="27" viewBox="0 0 36 27" fill="none" xmlns="http://www.w3.org/2000/svg">
<path fill-rule="evenodd" clip-rule="evenodd" d="M17.4219 0.431202C19.1409 -0.702469 21.4318 0.53171 21.4318 2.59065V23.7062C21.4318 25.7666 19.1409 26.9993 17.4219 25.8656L8.55353 20.0199C8.49353 19.9799 8.42314 19.9583 8.35103 19.9578H4.06466C2.98665 19.9578 1.95278 19.5296 1.19051 18.7673C0.42824 18.005 0 16.9712 0 15.8932V10.4037C0 9.86988 0.105136 9.34133 0.309404 8.84818C0.513672 8.35504 0.813073 7.90695 1.19051 7.52951C1.56795 7.15207 2.01604 6.85267 2.50918 6.64841C3.00233 6.44414 3.53088 6.339 4.06466 6.339H8.35103C8.42349 6.33924 8.49443 6.31816 8.555 6.2784L17.4219 0.431202Z" fill="#FF3300"/>
<path d="M32.4387 18.8245C32.0065 18.8245 31.6934 18.6473 31.4997 18.293L29.5544 14.8387L27.6315 18.293C27.4377 18.6473 27.1247 18.8245 26.6924 18.8245H24.3223C24.0093 18.8245 23.8006 18.7359 23.6963 18.5587C23.6068 18.3816 23.6441 18.1602 23.8081 17.8945L27.2738 12.6465L24.1658 7.93001C24.0019 7.6643 23.9646 7.44286 24.054 7.26572C24.1584 7.08857 24.3671 7 24.6801 7H26.9384C27.3706 7 27.6837 7.17715 27.8775 7.53144L29.6215 10.6536L31.3208 7.55358C31.5146 7.18453 31.8201 7 32.2375 7H34.4734C34.7865 7 34.9877 7.08857 35.0771 7.26572C35.1815 7.44286 35.1517 7.6643 34.9877 7.93001L31.8798 12.6465L35.3231 17.8945C35.4871 18.1602 35.5169 18.3816 35.4125 18.5587C35.3231 18.7359 35.1219 18.8245 34.8088 18.8245H32.4387Z" fill="#FF3300"/>
</svg>
