<svg width="36" height="27" viewBox="0 0 36 27" fill="none" xmlns="http://www.w3.org/2000/svg">
<path d="M25.4963 5.13965C25.8462 5.13967 26.1814 5.27547 26.4338 5.5166L26.4465 5.52539L26.4641 5.54297L26.4739 5.55371L26.5042 5.58301L26.5129 5.59277L26.6047 5.69434L26.6067 5.69727L26.9124 6.06348L26.9133 6.06543C28.3126 7.88417 29.0714 10.1145 29.0715 12.4092C29.0715 14.704 28.3126 16.9351 26.9133 18.7539L26.9124 18.7549C26.8206 18.872 26.7237 18.9851 26.6252 19.0967L26.635 19.1064L26.4583 19.2832L26.4543 19.2881L26.4475 19.292C26.4411 19.2983 26.4345 19.3044 26.428 19.3105L26.2815 19.457L26.2659 19.4414C26.0411 19.5959 25.7739 19.6816 25.4973 19.6816C25.137 19.6816 24.7912 19.538 24.5364 19.2832C24.2815 19.0284 24.1379 18.6827 24.1379 18.3223C24.138 17.9639 24.2793 17.6196 24.5315 17.3652V17.3643L24.5354 17.3604L24.5803 17.3115H24.5813C24.6218 17.2677 24.6849 17.1913 24.7737 17.0791C25.678 15.8975 26.2204 14.4788 26.3342 12.9951C26.4481 11.5104 26.128 10.0242 25.4133 8.71777L25.4124 8.7168C25.2727 8.45943 25.1176 8.2108 24.9475 7.97266L24.7727 7.73828C24.7348 7.68932 24.6955 7.64097 24.6555 7.59375L24.5325 7.45508L24.5305 7.45312C24.2781 7.19786 24.1369 6.85313 24.1379 6.49414C24.139 6.13501 24.2823 5.79097 24.5364 5.53711C24.7911 5.2827 25.1363 5.13965 25.4963 5.13965Z" fill="#FF3300" stroke="#FF3300" stroke-width="0.5" stroke-linecap="round"/>
<path fill-rule="evenodd" clip-rule="evenodd" d="M17.4219 0.431202C19.1409 -0.702469 21.4318 0.53171 21.4318 2.59065V23.7062C21.4318 25.7666 19.1409 26.9993 17.4219 25.8656L8.55352 20.0199C8.49353 19.9799 8.42314 19.9583 8.35103 19.9578H4.06466C2.98665 19.9578 1.95278 19.5296 1.19051 18.7673C0.42824 18.005 0 16.9712 0 15.8932V10.4037C0 9.86988 0.105136 9.34133 0.309404 8.84818C0.513672 8.35504 0.813073 7.90695 1.19051 7.52951C1.56795 7.15208 2.01604 6.85267 2.50918 6.64841C3.00233 6.44414 3.53088 6.339 4.06466 6.339H8.35103C8.42349 6.33924 8.49442 6.31816 8.555 6.2784L17.4219 0.431202Z" fill="#FF3300"/>
<path d="M29.9309 0.705566C30.2796 0.705651 30.6134 0.840913 30.8655 1.08057L30.8782 1.08838L30.8948 1.10596L30.9084 1.11963L30.9221 1.13428H30.9211C30.987 1.19978 31.0507 1.26741 31.1106 1.33838H31.1096C31.2298 1.47397 31.3941 1.66721 31.5852 1.9165H31.5842C31.9718 2.41873 32.4781 3.1551 32.9807 4.11084C33.9862 6.0228 34.9846 8.82498 34.9846 12.4097C34.9846 15.9937 33.986 18.7952 32.9807 20.7085C32.5796 21.479 32.1132 22.214 31.5852 22.9038H31.5842C31.4179 23.1201 31.2403 23.327 31.0579 23.5298L31.0706 23.5425L30.9124 23.6948L30.8899 23.73L30.8557 23.7466C30.6032 23.9759 30.274 24.1039 29.9319 24.1011C29.576 24.098 29.2355 23.9551 28.9836 23.7036C28.7316 23.4518 28.5885 23.1106 28.5852 22.7544C28.582 22.3983 28.7188 22.0556 28.9661 21.7993C28.9672 21.7982 28.9679 21.7965 28.969 21.7954L28.9895 21.7749L29.0735 21.6812L29.0745 21.6802C29.1557 21.5907 29.2743 21.4472 29.4319 21.2456C29.7377 20.8473 30.1548 20.2431 30.5754 19.4438L30.7336 19.1353C31.5206 17.548 32.2668 15.2845 32.2668 12.4097C32.2668 9.34309 31.4173 6.97215 30.5754 5.37549V5.37451C30.2455 4.74228 29.8618 4.13926 29.4299 3.57178V3.5708C29.2903 3.3895 29.1432 3.21405 28.9895 3.04443L28.969 3.02295C28.7146 2.76822 28.5715 2.42299 28.5715 2.06299C28.5716 1.70224 28.7163 1.3571 28.97 1.10303H28.9709C29.2257 0.848697 29.571 0.705566 29.9309 0.705566Z" fill="#FF3300" stroke="#FF3300" stroke-width="0.5" stroke-linecap="round"/>
</svg>
